<?xml version="1.0" encoding="utf-8"?>
<!-- Generator: Adobe Illustrator 27.1.1, SVG Export Plug-In . SVG Version: 6.00 Build 0)  -->
<svg version="1.1" id="Layer_3" xmlns="http://www.w3.org/2000/svg" xmlns:xlink="http://www.w3.org/1999/xlink" x="0px" y="0px"
	 viewBox="0 0 16 16" style="enable-background:new 0 0 16 16;" xml:space="preserve">
<path d="M15.7,7.5c-0.1-0.1-0.1-0.2-0.2-0.2c-0.1-0.2-0.3-0.2-0.5-0.1c-0.1,0.1-0.2,0.1-0.3,0.2c-0.1,0.1-0.1,0-0.1,0
	c-0.2-0.2-0.5-0.4-0.7-0.6c-0.4-0.3-0.8-0.5-1.2-0.8c-0.5-0.3-0.9-0.6-1.4-0.9c-0.1,0-0.1-0.1,0-0.1c0.2-0.3,0.4-0.5,0.6-0.9
	C11.9,4,12,3.8,12,3.7c0-0.2-0.1-0.3-0.3-0.3c-0.1,0-0.2,0.1-0.3,0.1c-0.2,0.1-0.3,0.2-0.4,0.3c0,0,0-0.1,0-0.1
	c0.1-0.2,0.2-0.5,0.2-0.8c0-0.4-0.2-0.7-0.6-0.8C10.2,2,9.9,2,9.5,2.1C9.2,2.1,9,2.2,8.7,2.3c-0.1,0-0.1,0-0.2-0.1
	C8.4,1.8,8.2,1.5,8.1,1.1c0,0,0,0,0,0c0,0,0,0,0,0C7.8,1.5,7.6,1.9,7.5,2.2c0,0.1-0.1,0.1-0.1,0c-0.1,0-0.2-0.1-0.3-0.1
	C6.7,2.1,6.3,2,5.8,2c-0.3,0-0.5,0.1-0.7,0.4C4.9,2.7,4.9,3,4.9,3.3C5,3.5,5,3.7,5.1,3.9C5,3.8,5,3.7,4.9,3.7
	C4.7,3.5,4.6,3.4,4.4,3.4c-0.2,0-0.3,0.1-0.3,0.2c0,0.2,0.1,0.4,0.1,0.5C4.4,4.5,4.6,4.8,4.8,5c0.1,0.1,0.1,0.1,0,0.1
	c-0.5,0.3-1,0.7-1.5,0.9C2.6,6.5,1.9,6.9,1.4,7.4c0,0-0.1,0-0.1,0C1.2,7.3,1.1,7.3,1,7.2C0.8,7.1,0.6,7.1,0.5,7.3
	C0.4,7.4,0.4,7.4,0.3,7.5c0,0,0,0.1,0,0.1c0.1,0.1,0.1,0.2,0.2,0.3C0.6,8,0.7,8,0.9,8c0.1,0,0.2-0.1,0.4-0.2c0.1-0.1,0.1-0.1,0.2,0
	c0.5,0.5,1,0.8,1.5,1.1C3.6,9.2,4.2,9.6,4.8,10c0.1,0,0.1,0.1,0,0.1c-0.2,0.2-0.4,0.5-0.5,0.7c-0.1,0.2-0.2,0.4-0.2,0.7
	c0,0.2,0.1,0.3,0.3,0.3c0.2,0,0.4-0.2,0.5-0.3c0,0,0.1-0.1,0.1-0.1c0,0,0,0.1,0,0.1C5,11.6,4.9,11.8,4.9,12
	c-0.1,0.5,0.2,0.9,0.7,1.1c0.3,0.1,0.5,0.1,0.8,0.1c0.3,0,0.7-0.1,1-0.2c0.1,0,0.1,0,0.1,0.1C7.6,13.3,7.8,13.7,8,14
	c0,0,0,0.1,0,0.1c0,0,0,0,0-0.1c0.2-0.4,0.4-0.7,0.5-1.1c0-0.1,0.1-0.1,0.1-0.1C8.9,12.9,9,13,9.2,13c0.4,0.1,0.7,0.1,1.1,0.1
	c0.2-0.1,0.5-0.2,0.6-0.3c0.2-0.2,0.2-0.5,0.2-0.8c0-0.2-0.1-0.4-0.2-0.6c0.1,0.1,0.1,0.1,0.2,0.2c0.2,0.1,0.3,0.2,0.6,0.3
	c0.1,0,0.2,0,0.2-0.1c0-0.1,0-0.2,0-0.2c0-0.2-0.1-0.3-0.2-0.5c-0.2-0.3-0.4-0.6-0.6-0.8c0-0.1,0-0.1,0-0.1c0.3-0.2,0.6-0.4,0.9-0.6
	c0.4-0.2,0.8-0.5,1.2-0.7c0.5-0.3,0.8-0.6,1.2-1c0,0,0.1,0,0.1,0c0.1,0.1,0.2,0.2,0.3,0.2c0.2,0.1,0.3,0.1,0.4,0
	C15.6,7.8,15.7,7.7,15.7,7.5C15.7,7.6,15.7,7.5,15.7,7.5z M10.8,4.8c0.1-0.2,0.2-0.3,0.4-0.5c0.1-0.1,0.2-0.2,0.3-0.3
	c-0.1,0.2-0.3,0.5-0.5,0.7C11,4.7,10.9,4.8,10.8,4.8C10.8,4.9,10.8,4.9,10.8,4.8C10.7,4.8,10.8,4.8,10.8,4.8z M8.8,2.7
	c0.3-0.1,0.6-0.2,0.9-0.2c0.1,0,0.2,0,0.3,0c0.1,0,0.2,0,0.3,0c0.4,0.1,0.5,0.3,0.5,0.7c-0.1,0.3-0.2,0.7-0.4,1
	c0,0.1-0.1,0.1-0.1,0.2c0,0-0.1,0-0.1,0C9.7,4.1,9.4,3.8,9,3.5c0,0-0.1,0-0.1-0.1C8.9,3.2,8.8,3,8.8,2.7C8.7,2.7,8.7,2.7,8.8,2.7z
	 M9.5,5.9c0,0.1-0.1,0.2-0.1,0.3C9.3,6.3,9.2,6.6,9,6.7c0,0,0,0.1-0.1,0c0,0,0-0.1,0-0.2C9,6.5,9.1,6.4,9.1,6.3
	C9.3,6.2,9.4,6,9.5,5.9C9.5,5.9,9.5,5.9,9.5,5.9z M9.2,4.3c0.2,0.2,0.4,0.3,0.6,0.5c0,0,0,0.1,0,0.1C9.8,4.9,9.7,5,9.6,5.1
	c0,0,0,0-0.1,0C9.4,4.8,9.3,4.5,9.2,4.3z M9,8.5C9,8.4,9,8.5,9,8.5c0.1,0.1,0.2,0.2,0.3,0.3c0.1,0.2,0.2,0.3,0.2,0.5c0,0,0,0,0,0.1
	C9.4,9.1,9.3,9,9.2,8.9C9.1,8.8,9,8.7,9,8.6C8.9,8.6,8.9,8.5,9,8.5z M9.6,10.1C9.6,10.1,9.6,10.1,9.6,10.1c0.1,0.1,0.2,0.2,0.3,0.2
	c0,0,0,0.1,0,0.1c-0.2,0.2-0.4,0.3-0.6,0.4c0,0,0,0,0,0c0-0.1,0.1-0.3,0.2-0.4C9.4,10.3,9.5,10.2,9.6,10.1z M9.8,8.5
	C9.6,8.4,9.6,8.3,9.5,8.2C9.4,8,9.4,7.8,9.3,7.6c0,0,0,0,0-0.1c0,0,0,0,0-0.1C9.4,7.3,9.5,7,9.6,6.8c0,0,0-0.1,0.1-0.1
	c0.1-0.1,0.2-0.2,0.3-0.3c0,0,0.1,0,0.1,0c0.4,0.4,0.9,0.8,1.4,1.1c0.1,0,0,0.1,0,0.1c-0.2,0.2-0.4,0.3-0.6,0.5
	c-0.2,0.2-0.5,0.4-0.7,0.6c-0.1,0-0.1,0-0.1,0C9.9,8.6,9.8,8.6,9.8,8.5z M7.8,4C7.9,4,7.9,3.9,8,3.8c0,0,0.1-0.1,0.1,0
	C8.4,4.2,8.7,4.6,9,5c0.1,0.1,0.2,0.3,0.3,0.4c0,0,0,0.1,0,0.1C9.1,5.7,8.9,5.9,8.8,6c0,0.1-0.1,0-0.1,0C8.6,5.6,8.4,5.1,8.3,4.7
	C8.2,4.4,8.1,4.2,8.1,3.9c0,0,0,0,0,0C7.8,4.6,7.6,5.3,7.3,6.1C7.2,6,7.1,5.9,7,5.8C7,5.7,6.9,5.6,6.8,5.5c0,0,0-0.1,0-0.1
	C7.1,4.9,7.5,4.5,7.8,4z M8.1,6.8C8,6.8,8,6.9,8.1,6.8C8,6.8,7.9,6.8,7.9,6.7c-0.1-0.1,0-0.1,0-0.1C8,6.5,8,6.5,8,6.4c0,0,0,0,0,0
	c0,0,0,0,0,0c0,0,0,0.1,0,0.1C8.2,6.7,8.2,6.7,8.1,6.8z M8.1,8.5c0,0.1-0.1,0.1-0.1,0.2C8,8.7,7.9,8.6,7.9,8.5c0-0.1,0-0.1,0-0.1
	c0,0,0-0.1,0.1-0.1C8.2,8.4,8.2,8.5,8.1,8.5z M6.5,5C6.5,5.1,6.4,5.1,6.5,5C6.3,5,6.3,4.9,6.2,4.8c0,0,0-0.1,0-0.1
	c0.2-0.2,0.4-0.3,0.6-0.5C6.7,4.5,6.6,4.8,6.5,5z M6.5,5.9C6.7,6,6.8,6.2,7,6.3C7,6.4,7.1,6.5,7.1,6.5c0,0,0,0.1,0,0.2c0,0,0,0,0,0
	C6.9,6.6,6.8,6.5,6.8,6.3C6.7,6.2,6.6,6,6.5,5.9C6.5,5.9,6.5,5.9,6.5,5.9z M6.4,6.7c0.1,0,0.1,0.1,0.1,0.2c0.1,0.2,0.2,0.5,0.3,0.7
	c0,0,0,0,0,0.1c0,0,0,0.1,0,0.1C6.7,7.9,6.6,8.1,6.5,8.4c0,0-0.1,0.1-0.1,0.1C6.3,8.5,6.2,8.6,6.1,8.7c0,0-0.1,0-0.1,0
	C5.6,8.3,5.2,8,4.7,7.6c-0.1-0.1-0.1-0.1,0-0.1C5.2,7.2,5.6,6.9,6,6.4c0,0,0.1,0,0.1,0C6.2,6.5,6.3,6.6,6.4,6.7z M6.2,10.3
	c0.1-0.1,0.1-0.2,0.2-0.2c0,0,0,0,0.1,0c0.1,0.2,0.2,0.5,0.3,0.8c-0.2-0.1-0.3-0.2-0.4-0.3C6.4,10.5,6.3,10.5,6.2,10.3
	C6.2,10.4,6.2,10.4,6.2,10.3z M6.5,9.3c0-0.1,0.1-0.2,0.1-0.3C6.8,8.8,6.8,8.7,7,8.5c0,0,0,0,0,0c0,0,0.1-0.1,0.1,0
	c0,0,0.1,0.1,0,0.2C7,8.7,7,8.8,6.9,8.9C6.8,9,6.7,9.1,6.5,9.3C6.5,9.3,6.5,9.3,6.5,9.3z M5.7,2.5C5.9,2.5,6,2.5,6.1,2.5
	c0.2,0,0.4,0,0.5,0.1c0.2,0,0.4,0.1,0.6,0.1c0,0,0.1,0,0,0.1C7.2,3,7.2,3.2,7.1,3.5c0,0,0,0.1-0.1,0.1C6.7,3.8,6.4,4.1,6,4.3
	c-0.1,0-0.1,0-0.1,0C5.7,4,5.5,3.7,5.4,3.3c0-0.1,0-0.1,0-0.2C5.3,2.8,5.5,2.6,5.7,2.5z M4.8,4.3C4.7,4.2,4.6,4.1,4.5,3.9
	C4.8,4.1,5,4.4,5.2,4.6c0,0,0.1,0.1,0.1,0.1c0,0,0,0,0,0.1c0,0-0.1,0-0.1,0C5.1,4.7,4.9,4.5,4.8,4.3z M3.4,8.6
	c-0.4-0.3-0.7-0.6-1-0.9c0,0,0-0.1,0-0.1c0.2-0.2,0.5-0.5,0.7-0.7c0.3-0.3,0.6-0.5,1-0.7l1-0.6c0.1,0,0.1,0,0.2,0
	C5.4,5.7,5.5,5.9,5.7,6c0,0,0,0.1,0,0.1C5.4,6.4,5.2,6.6,4.8,6.7C4.3,7,3.8,7.1,3.3,7.3C3.1,7.4,2.9,7.5,2.7,7.5c0,0-0.1,0-0.1,0
	c0.1,0,0.1,0,0.2,0.1C3.3,7.8,3.9,8,4.5,8.3c0.4,0.2,0.7,0.3,1,0.6C5.6,8.9,5.6,9,5.7,9c0,0,0,0.1,0,0.1C5.5,9.3,5.4,9.5,5.2,9.6
	c0,0,0,0-0.1,0C4.6,9.3,4,9,3.4,8.6z M4.6,11.2C4.6,11.2,4.6,11.2,4.6,11.2c0.1-0.1,0.2-0.3,0.3-0.4c0.1-0.2,0.2-0.3,0.3-0.5
	c0,0,0.1,0,0.1,0c0,0,0,0.1,0,0.1C5.1,10.7,4.8,10.9,4.6,11.2z M7.3,12.5c-0.3,0.1-0.5,0.2-0.8,0.2c-0.1,0-0.2,0-0.4,0
	c-0.1,0-0.3,0-0.4-0.1c-0.2-0.1-0.3-0.2-0.3-0.4c0-0.2,0.1-0.4,0.2-0.6c0.1-0.2,0.2-0.5,0.4-0.7c0-0.1,0.1-0.1,0.1,0
	c0.4,0.3,0.7,0.5,1.1,0.8c0,0,0.1,0.1,0.1,0.1C7.2,11.9,7.2,12.2,7.3,12.5C7.3,12.4,7.3,12.5,7.3,12.5z M8.1,11.3
	C8,11.4,8,11.4,8.1,11.3c-0.5-0.5-0.9-1-1.2-1.6c0-0.1,0-0.1,0-0.2C7,9.5,7.1,9.3,7.3,9.1c0-0.1,0.1,0,0.1,0
	c0.2,0.5,0.3,0.9,0.5,1.4C7.9,10.8,7.9,11,8.1,11.3C8,11.3,8,11.3,8.1,11.3c0-0.2,0-0.3,0.1-0.4c0.1-0.3,0.2-0.6,0.3-0.8
	c0.1-0.3,0.2-0.6,0.3-1c0,0,0-0.1,0-0.1c0,0,0,0,0.1,0c0.1,0.2,0.3,0.3,0.4,0.5c0,0,0,0.1,0,0.1C8.9,10.3,8.5,10.8,8.1,11.3z
	 M10.7,12.2c0,0.2-0.2,0.3-0.4,0.4c-0.1,0-0.3,0.1-0.4,0.1c-0.3,0-0.6-0.1-0.9-0.2c-0.1,0-0.2,0-0.2-0.1c-0.1,0-0.1,0-0.1-0.1
	c0.1-0.2,0.1-0.5,0.2-0.7c0,0,0-0.1,0.1-0.1c0.4-0.3,0.7-0.6,1.1-0.8c0,0,0.1,0,0.1,0c0.2,0.3,0.4,0.7,0.5,1.1
	C10.7,12,10.7,12.1,10.7,12.2z M11.5,11.3c-0.3-0.3-0.5-0.5-0.8-0.9c0,0,0-0.1,0-0.1c0,0,0.1,0,0.1,0C11.1,10.6,11.3,10.9,11.5,11.3
	z M13.6,7.6c-0.2,0.2-0.4,0.4-0.6,0.6c-0.3,0.3-0.6,0.5-1,0.8c-0.4,0.2-0.7,0.5-1.1,0.7c0,0-0.1,0-0.1,0c-0.2-0.2-0.3-0.4-0.5-0.5
	c0,0,0-0.1,0-0.1c0.3-0.3,0.6-0.5,0.9-0.6c0.7-0.3,1.3-0.5,2-0.8c0.1,0,0.1,0,0.2-0.1c0,0,0,0,0,0c-0.2-0.1-0.3-0.1-0.5-0.2
	c-0.5-0.2-1-0.3-1.5-0.5c-0.4-0.2-0.8-0.4-1.1-0.7c-0.1,0-0.1-0.1,0-0.1c0.2-0.2,0.3-0.3,0.5-0.5c0,0,0.1-0.1,0.1,0
	c0.4,0.3,0.9,0.5,1.3,0.8c0.4,0.3,0.8,0.7,1.2,1C13.5,7.4,13.6,7.5,13.6,7.6C13.7,7.6,13.7,7.6,13.6,7.6z"/>
</svg>
