<?xml version="1.0" encoding="utf-8"?>
<!-- Generator: Adobe Illustrator 27.1.1, SVG Export Plug-In . SVG Version: 6.00 Build 0)  -->
<svg version="1.1" id="Layer_2" xmlns="http://www.w3.org/2000/svg" xmlns:xlink="http://www.w3.org/1999/xlink" x="0px" y="0px"
	 viewBox="0 0 24 24" style="enable-background:new 0 0 24 24;" xml:space="preserve">
<style type="text/css">
	.st0{fill:#FFFFFF;}
</style>
<path class="st0" d="M17.7,16.9c-2-1.9-4.6-2.5-7-3.5c-1.4-0.6-2.7-1.2-3.9-2c-1.8-1.2-2.7-3-2.3-5.2c0.4-2.4,1.8-3.9,4.1-4.6
	c2.3-0.7,4.5-0.5,6.6,0.9c1.2,0.8,1.7,2,1.9,3.4c0,0.1-0.1,0.2-0.3,0.4c-0.1-0.3-0.1-0.6-0.2-0.9c-0.5-2-2.2-3.5-4.5-3.6
	c-0.9-0.1-1.8,0-2.7,0.2c-1,0.2-1.8,0.9-2,2C7.2,5,7.7,5.9,8.7,6.4c0.9,0.5,1.8,0.9,2.7,1.3c1.7,0.8,3.5,1.5,5,2.6
	C18.5,11.8,18.9,14.7,17.7,16.9z"/>
<path class="st0" d="M14.1,17.6c1.4,0,2.6,1.2,2.6,2.6c0,1.4-1.2,2.6-2.6,2.5c-1.4,0-2.6-1.2-2.6-2.6C11.5,18.7,12.7,17.6,14.1,17.6
	z"/>
</svg>
